<?xml version="1.0" encoding="UTF-8"?>
<svg xmlns="http://www.w3.org/2000/svg" xmlns:xlink="http://www.w3.org/1999/xlink" viewBox="0 0 100 100" width="100px" height="100px">
<g id="surface20097103">
<path style=" stroke:none;fill-rule:nonzero;fill:rgb(95.686275%,31.764707%,11.764706%);fill-opacity:1;" d="M 76.421875 89.582031 L 23.578125 89.582031 C 19.128906 89.582031 15.460938 86.085938 15.253906 81.640625 L 12.601562 25.097656 C 12.546875 23.910156 13.492188 22.917969 14.683594 22.917969 L 85.316406 22.917969 C 86.507812 22.917969 87.453125 23.910156 87.398438 25.097656 L 84.746094 81.640625 C 84.539062 86.085938 80.871094 89.582031 76.421875 89.582031 Z M 76.421875 89.582031 "/>
<path style=" stroke:none;fill-rule:nonzero;fill:rgb(95.686275%,31.764707%,11.764706%);fill-opacity:1;" d="M 67.707031 23.957031 L 63.542969 23.957031 C 63.542969 15.339844 57.464844 8.332031 50 8.332031 C 42.535156 8.332031 36.457031 15.339844 36.457031 23.957031 L 32.292969 23.957031 C 32.292969 13.046875 40.234375 4.167969 50 4.167969 C 59.765625 4.167969 67.707031 13.046875 67.707031 23.957031 Z M 67.707031 23.957031 "/>
<path style=" stroke:none;fill-rule:nonzero;fill:rgb(98.039216%,98.039216%,98.039216%);fill-opacity:1;" d="M 50.515625 53.515625 C 44.804688 51.429688 41.339844 49.886719 41.339844 46.066406 C 41.339844 42.207031 45.039062 39.410156 50.140625 39.410156 C 53.648438 39.410156 56.722656 40.785156 58.238281 41.601562 C 58.496094 41.738281 59.226562 42.175781 59.640625 42.453125 L 59.910156 42.636719 L 61.90625 39.390625 L 61.578125 39.175781 C 59.972656 38.089844 55.632812 35.566406 50.140625 35.566406 C 42.933594 35.566406 37.503906 40.078125 37.503906 46.0625 C 37.503906 52.847656 43.714844 55.117188 49.199219 57.121094 C 55.597656 59.460938 59.480469 61.238281 59.480469 66.183594 C 59.480469 69.992188 55.171875 73.085938 49.878906 73.085938 C 43.910156 73.085938 38.78125 68.703125 38.734375 68.660156 L 38.464844 68.414062 L 36.289062 71.628906 L 36.507812 71.808594 C 37.992188 73.011719 43.332031 76.929688 49.875 76.929688 C 57.414062 76.929688 63.320312 72.207031 63.320312 66.183594 C 63.320312 58.195312 56.515625 55.710938 50.515625 53.515625 Z M 50.515625 53.515625 "/>
</g>
</svg>
