<?xml version="1.0" encoding="UTF-8"?>
<svg xmlns="http://www.w3.org/2000/svg" xmlns:xlink="http://www.w3.org/1999/xlink" viewBox="0 0 100 100" width="100px" height="100px">
<g id="surface20291426">
<path style=" stroke:none;fill-rule:nonzero;fill:rgb(97.647059%,92.941177%,84.313726%);fill-opacity:1;" d="M 82 8 L 18 8 C 12.484375 8 8 12.484375 8 18 L 8 82 C 8 87.515625 12.484375 92 18 92 L 82 92 C 87.515625 92 92 87.515625 92 82 L 92 18 C 92 12.484375 87.515625 8 82 8 Z M 74.011719 44.644531 C 73.558594 44.6875 73.097656 44.714844 72.632812 44.714844 C 67.386719 44.714844 62.777344 42.019531 60.09375 37.941406 C 60.09375 48.636719 60.09375 60.808594 60.09375 61.015625 C 60.09375 70.433594 52.457031 78.066406 43.039062 78.066406 C 33.621094 78.066406 25.984375 70.433594 25.984375 61.015625 C 25.984375 51.597656 33.621094 43.960938 43.039062 43.960938 C 43.394531 43.960938 43.742188 43.992188 44.09375 44.015625 L 44.09375 52.417969 C 43.742188 52.375 43.398438 52.3125 43.039062 52.3125 C 38.230469 52.3125 34.335938 56.207031 34.335938 61.015625 C 34.335938 65.824219 38.230469 69.71875 43.039062 69.71875 C 47.847656 69.71875 52.09375 65.933594 52.09375 61.125 C 52.09375 60.933594 52.179688 21.9375 52.179688 21.9375 L 60.210938 21.9375 C 60.964844 29.117188 66.765625 34.785156 74.011719 35.304688 Z M 74.011719 44.644531 "/>
</g>
</svg>
