<?xml version="1.0" encoding="UTF-8"?>
<svg xmlns="http://www.w3.org/2000/svg" xmlns:xlink="http://www.w3.org/1999/xlink" viewBox="0 0 100 100" width="100px" height="100px">
<defs>
<linearGradient id="linear0" gradientUnits="userSpaceOnUse" x1="86.362808" y1="3.88344" x2="86.362808" y2="137.178055" gradientTransform="matrix(0.581395,0,0,0.581395,0,0)">
<stop offset="0" style="stop-color:rgb(40.000001%,99.607843%,35.686275%);stop-opacity:1;"/>
<stop offset="0.492" style="stop-color:rgb(23.529412%,91.764706%,5.098039%);stop-opacity:1;"/>
<stop offset="1" style="stop-color:rgb(23.529412%,91.764706%,5.098039%);stop-opacity:1;"/>
</linearGradient>
<linearGradient id="linear1" gradientUnits="userSpaceOnUse" x1="63.21537" y1="-9.18588" x2="63.21537" y2="171.521637" gradientTransform="matrix(1.5625,0,0,1.5625,0,0)">
<stop offset="0" style="stop-color:rgb(6.666667%,90.980393%,0.392157%);stop-opacity:1;"/>
<stop offset="1" style="stop-color:rgb(12.941177%,50.196081%,2.745098%);stop-opacity:1;"/>
</linearGradient>
<linearGradient id="linear2" gradientUnits="userSpaceOnUse" x1="86.362808" y1="-9.18588" x2="86.362808" y2="171.521637" gradientTransform="matrix(0.581395,0,0,0.581395,0,0)">
<stop offset="0" style="stop-color:rgb(6.666667%,90.980393%,0.392157%);stop-opacity:1;"/>
<stop offset="1" style="stop-color:rgb(12.941177%,50.196081%,2.745098%);stop-opacity:1;"/>
</linearGradient>
<linearGradient id="linear3" gradientUnits="userSpaceOnUse" x1="109.512939" y1="-9.18588" x2="109.512939" y2="171.521637" gradientTransform="matrix(1.5625,0,0,1.5625,0,0)">
<stop offset="0" style="stop-color:rgb(6.666667%,90.980393%,0.392157%);stop-opacity:1;"/>
<stop offset="1" style="stop-color:rgb(12.941177%,50.196081%,2.745098%);stop-opacity:1;"/>
</linearGradient>
<linearGradient id="linear4" gradientUnits="userSpaceOnUse" x1="85.596878" y1="99.733131" x2="85.596878" y2="118.196251" gradientTransform="matrix(0.581395,0,0,0.581395,0,0)">
<stop offset="0" style="stop-color:rgb(40.000001%,99.607843%,35.686275%);stop-opacity:1;"/>
<stop offset="0.492" style="stop-color:rgb(23.529412%,91.764706%,5.098039%);stop-opacity:1;"/>
<stop offset="1" style="stop-color:rgb(23.529412%,91.764706%,5.098039%);stop-opacity:1;"/>
</linearGradient>
<linearGradient id="linear5" gradientUnits="userSpaceOnUse" x1="85.586128" y1="-12.18781" x2="85.586128" y2="168.522385" gradientTransform="matrix(0.581395,0,0,0.581395,0,0)">
<stop offset="0" style="stop-color:rgb(6.666667%,90.980393%,0.392157%);stop-opacity:1;"/>
<stop offset="1" style="stop-color:rgb(12.941177%,50.196081%,2.745098%);stop-opacity:1;"/>
</linearGradient>
<linearGradient id="linear6" gradientUnits="userSpaceOnUse" x1="86.362808" y1="-9.18588" x2="86.362808" y2="171.521637" gradientTransform="matrix(0.581395,0,0,0.581395,0,0)">
<stop offset="0" style="stop-color:rgb(6.666667%,90.980393%,0.392157%);stop-opacity:1;"/>
<stop offset="1" style="stop-color:rgb(12.941177%,50.196081%,2.745098%);stop-opacity:1;"/>
</linearGradient>
</defs>
<g id="surface19887420">
<path style=" stroke:none;fill-rule:nonzero;fill:url(#linear0);" d="M 84.375 21.25 L 84.375 59.546875 C 84.375 73.28125 73.25 84.40625 59.53125 84.40625 L 16.046875 84.40625 L 16.046875 21.25 L 35.71875 21.25 C 40.296875 21.25 46.0625 24.359375 50.21875 28.5 C 54.359375 24.359375 60.125 21.25 64.703125 21.25 Z M 84.375 21.25 "/>
<path style=" stroke:none;fill-rule:nonzero;fill:rgb(100%,100%,100%);fill-opacity:1;" d="M 50.210938 47.128906 C 50.210938 55.132812 43.722656 61.625 35.71875 61.625 C 27.710938 61.625 21.222656 55.132812 21.222656 47.128906 C 21.222656 39.125 27.710938 32.636719 35.71875 32.636719 C 43.722656 32.636719 50.210938 39.125 50.210938 47.128906 Z M 50.210938 47.128906 "/>
<path style=" stroke:none;fill-rule:nonzero;fill:rgb(100%,100%,100%);fill-opacity:1;" d="M 79.199219 47.128906 C 79.199219 55.132812 72.710938 61.625 64.703125 61.625 C 56.699219 61.625 50.210938 55.132812 50.210938 47.128906 C 50.210938 39.125 56.699219 32.636719 64.703125 32.636719 C 72.710938 32.636719 79.199219 39.125 79.199219 47.128906 Z M 79.199219 47.128906 "/>
<path style=" stroke:none;fill-rule:nonzero;fill:rgb(100%,100%,100%);fill-opacity:1;" d="M 68.75 75.738281 C 68.75 76.988281 68.578125 80.082031 68.285156 81.25 L 32.136719 81.25 C 31.84375 80.085938 31.671875 76.988281 31.671875 75.738281 C 31.671875 66.699219 39.972656 59.375 50.21875 59.375 C 60.449219 59.375 68.75 66.699219 68.75 75.738281 Z M 68.75 75.738281 "/>
<path style=" stroke:none;fill-rule:nonzero;fill:url(#linear1);" d="M 44 48.164062 C 44 52.167969 40.753906 55.410156 36.753906 55.410156 C 32.75 55.410156 29.507812 52.167969 29.507812 48.164062 C 29.507812 44.160156 32.75 40.917969 36.753906 40.917969 C 40.753906 40.917969 44 44.160156 44 48.164062 Z M 44 48.164062 "/>
<path style=" stroke:none;fill-rule:nonzero;fill:rgb(100%,100%,100%);fill-opacity:1;" d="M 37.789062 42.46875 C 37.789062 45.042969 35.703125 47.128906 33.128906 47.128906 C 30.554688 47.128906 28.46875 45.042969 28.46875 42.46875 C 28.46875 39.898438 30.554688 37.8125 33.128906 37.8125 C 35.703125 37.8125 37.789062 39.898438 37.789062 42.46875 Z M 37.789062 42.46875 "/>
<path style=" stroke:none;fill-rule:nonzero;fill:rgb(100%,100%,100%);fill-opacity:1;" d="M 64.703125 22.8125 C 60.75 22.8125 55.375 25.53125 51.3125 29.59375 C 51.015625 29.90625 50.609375 30.0625 50.21875 30.0625 C 49.8125 30.0625 49.40625 29.90625 49.109375 29.59375 C 45.046875 25.53125 39.671875 22.8125 35.71875 22.8125 L 17.609375 22.8125 L 17.609375 82.84375 L 59.53125 82.84375 C 72.359375 82.84375 82.8125 72.390625 82.8125 59.546875 L 82.8125 22.8125 Z M 79.6875 59.546875 C 79.6875 70.671875 70.640625 79.71875 59.53125 79.71875 L 20.734375 79.71875 L 20.734375 25.9375 L 35.71875 25.9375 C 38.359375 25.9375 43.046875 27.953125 46.890625 31.8125 C 47.78125 32.6875 48.953125 33.1875 50.21875 33.1875 C 51.46875 33.1875 52.640625 32.6875 53.53125 31.8125 C 57.375 27.953125 62.0625 25.9375 64.703125 25.9375 L 79.6875 25.9375 Z M 79.6875 59.546875 "/>
<path style=" stroke:none;fill-rule:nonzero;fill:url(#linear2);" d="M 64.167969 31.609375 C 58.027344 31.609375 52.726562 35.203125 50.210938 40.386719 C 47.695312 35.203125 42.394531 31.609375 36.253906 31.609375 C 27.695312 31.609375 20.734375 38.570312 20.734375 47.128906 C 20.734375 55.6875 27.695312 62.648438 36.253906 62.648438 C 42.390625 62.648438 47.695312 59.054688 50.210938 53.871094 C 52.726562 59.054688 58.027344 62.648438 64.167969 62.648438 C 72.726562 62.648438 79.6875 55.6875 79.6875 47.128906 C 79.6875 38.570312 72.726562 31.609375 64.167969 31.609375 Z M 36.253906 59.523438 C 29.421875 59.523438 23.859375 53.960938 23.859375 47.128906 C 23.859375 40.296875 29.421875 34.734375 36.253906 34.734375 C 43.089844 34.734375 48.648438 40.296875 48.648438 47.128906 C 48.648438 53.960938 43.089844 59.523438 36.253906 59.523438 Z M 64.167969 59.523438 C 57.332031 59.523438 51.773438 53.960938 51.773438 47.128906 C 51.773438 40.296875 57.332031 34.734375 64.167969 34.734375 C 71 34.734375 76.5625 40.296875 76.5625 47.128906 C 76.5625 53.960938 71 59.523438 64.167969 59.523438 Z M 64.167969 59.523438 "/>
<path style=" stroke:none;fill-rule:nonzero;fill:url(#linear3);" d="M 70.917969 48.164062 C 70.917969 52.167969 67.671875 55.410156 63.671875 55.410156 C 59.667969 55.410156 56.421875 52.167969 56.421875 48.164062 C 56.421875 44.160156 59.667969 40.917969 63.671875 40.917969 C 67.671875 40.917969 70.917969 44.160156 70.917969 48.164062 Z M 70.917969 48.164062 "/>
<path style=" stroke:none;fill-rule:nonzero;fill:rgb(100%,100%,100%);fill-opacity:1;" d="M 64.707031 42.46875 C 64.707031 45.042969 62.621094 47.128906 60.046875 47.128906 C 57.472656 47.128906 55.386719 45.042969 55.386719 42.46875 C 55.386719 39.898438 57.472656 37.8125 60.046875 37.8125 C 62.621094 37.8125 64.707031 39.898438 64.707031 42.46875 Z M 64.707031 42.46875 "/>
<path style=" stroke:none;fill-rule:nonzero;fill:url(#linear4);" d="M 57.140625 61.40625 L 50.21875 68.34375 L 49.84375 68.71875 L 42.390625 61.265625 C 44.171875 59.25 46.796875 57.984375 49.6875 57.984375 C 49.875 57.984375 50.03125 58.015625 50.21875 58.015625 C 52.984375 58.15625 55.4375 59.4375 57.140625 61.40625 Z M 57.140625 61.40625 "/>
<path style=" stroke:none;fill-rule:nonzero;fill:url(#linear5);" d="M 49.84375 70.746094 L 40.246094 61.148438 L 41.21875 60.046875 C 43.359375 57.628906 46.445312 56.238281 49.6875 56.238281 C 49.828125 56.238281 49.960938 56.25 50.089844 56.261719 L 50.296875 56.273438 C 53.417969 56.429688 56.265625 57.824219 58.320312 60.203125 L 59.273438 61.300781 Z M 44.628906 61.113281 L 49.84375 66.328125 L 54.921875 61.234375 C 53.570312 60.128906 51.914062 59.484375 50.136719 59.394531 C 50.082031 59.398438 49.945312 59.386719 49.8125 59.375 C 49.800781 59.375 49.789062 59.375 49.78125 59.375 C 47.84375 59.375 46.054688 59.996094 44.628906 61.113281 Z M 44.628906 61.113281 "/>
<path style=" stroke:none;fill-rule:nonzero;fill:url(#linear6);" d="M 84.375 19.6875 L 66.039062 19.6875 C 64.789062 12.066406 58.179688 6.226562 50.210938 6.226562 C 42.242188 6.226562 35.632812 12.066406 34.382812 19.6875 L 16.046875 19.6875 C 15.1875 19.6875 14.484375 20.390625 14.484375 21.25 L 14.484375 84.40625 C 14.484375 85.265625 15.1875 85.96875 16.046875 85.96875 L 59.53125 85.96875 C 74.09375 85.96875 85.9375 74.109375 85.9375 59.546875 L 85.9375 21.25 C 85.9375 20.390625 85.234375 19.6875 84.375 19.6875 Z M 50.210938 9.351562 C 56.5 9.351562 61.75 13.867188 62.902344 19.824219 C 58.835938 20.398438 54.125 22.800781 50.21875 26.34375 C 46.296875 22.800781 41.589844 20.398438 37.523438 19.824219 C 38.671875 13.867188 43.921875 9.351562 50.210938 9.351562 Z M 82.8125 59.546875 C 82.8125 72.390625 72.359375 82.84375 59.53125 82.84375 L 17.609375 82.84375 L 17.609375 22.8125 L 35.71875 22.8125 C 39.671875 22.8125 45.046875 25.53125 49.109375 29.59375 C 49.40625 29.90625 49.8125 30.0625 50.21875 30.0625 C 50.609375 30.0625 51.015625 29.90625 51.3125 29.59375 C 55.375 25.53125 60.75 22.8125 64.703125 22.8125 L 82.8125 22.8125 Z M 82.8125 59.546875 "/>
</g>
</svg>
